<?xml version="1.0" encoding="UTF-8" standalone="no"?>
<!-- Creator: CorelDRAW 2019 (64-Bit) -->

<svg
   xmlns:dc="http://purl.org/dc/elements/1.1/"
   xmlns:cc="http://creativecommons.org/ns#"
   xmlns:rdf="http://www.w3.org/1999/02/22-rdf-syntax-ns#"
   xmlns:svg="http://www.w3.org/2000/svg"
   xmlns="http://www.w3.org/2000/svg"
   xmlns:sodipodi="http://sodipodi.sourceforge.net/DTD/sodipodi-0.dtd"
   xmlns:inkscape="http://www.inkscape.org/namespaces/inkscape"
   xml:space="preserve"
   width="216"
   height="50"
   version="1.1"
   style="clip-rule:evenodd;fill-rule:evenodd;image-rendering:optimizeQuality;shape-rendering:geometricPrecision;text-rendering:geometricPrecision"
   viewBox="0 0 5715.0002 1322.9166"
   id="svg33"
   sodipodi:docname="сибади лого.svg"
   inkscape:version="0.92.4 (5da689c313, 2019-01-14)"><metadata
   id="metadata37"><rdf:RDF><cc:Work
       rdf:about=""><dc:format>image/svg+xml</dc:format><dc:type
         rdf:resource="http://purl.org/dc/dcmitype/StillImage" /><dc:title></dc:title></cc:Work></rdf:RDF></metadata><sodipodi:namedview
   pagecolor="#ffffff"
   bordercolor="#666666"
   borderopacity="1"
   objecttolerance="10"
   gridtolerance="10"
   guidetolerance="10"
   inkscape:pageopacity="0"
   inkscape:pageshadow="2"
   inkscape:window-width="1920"
   inkscape:window-height="1017"
   id="namedview35"
   showgrid="false"
   inkscape:zoom="1.6820162"
   inkscape:cx="49.87276"
   inkscape:cy="-7.8983955"
   inkscape:window-x="-8"
   inkscape:window-y="-8"
   inkscape:window-maximized="1"
   inkscape:current-layer="svg33"
   units="px"
   fit-margin-top="0"
   fit-margin-left="0"
   fit-margin-right="0"
   fit-margin-bottom="0" />
 <defs
   id="defs4">
  <style
   type="text/css"
   id="style2">
   <![CDATA[
    .fil0 {fill:#0068B1}
   ]]>
  </style>
 </defs>
 <g
   id="Слой_x0020_1"
   transform="matrix(0.19932797,0,0,0.2000496,-76.238962,-945.6938)">
  <metadata
   id="CorelCorpID_0Corel-Layer" />
  <g
   id="_1089827184">
   <path
   class="fil0"
   d="m 382.48,10734.01 c 7345.84,-473.16 14686.1,-503.66 22021.55,-120.48 -51.38,98.56 -95.7,198.54 -160.59,287.67 -7260.83,-287.9 -14542.88,-134.37 -21854.43,439.04 z m 22596.56,-89.6 c 342.79,18.9 656.31,36.92 999.07,57.57 l -146.63,269.04 c -318.78,-15.49 -637.72,-29.92 -956.58,-43.7 z m 1606.63,95.09 c 380.05,24.05 760.15,49.17 1140.16,75.47 l -134.06,250.11 c -390.74,-22.86 -724.46,-41.42 -1115.31,-61.65 z m 1713.68,116.09 c 382.45,27.56 765.1,56.11 1147.49,85.93 l -126.47,233.01 c -380.55,-26 -761.29,-50.55 -1142.03,-74.06 z m 1681.8,128.34 c 357.53,28.74 715.21,58.36 1072.67,89.13 l -111.36,219.54 c -342.41,-26.53 -685.09,-51.92 -1027.62,-76.47 z"
   id="path7"
   inkscape:connector-curvature="0"
   style="fill:#0068b1" />
   <g
   id="g29">
    <g
   id="g13">
     <path
   class="fil0"
   d="m 11011.28,7599.75 c 245.83,417.94 400.96,775.64 517.69,1289.14 4.47,19.99 3.9,19.68 22.81,27.47 l 869.54,358.93 c 23.67,8.11 41.23,33.53 41.96,69.67 l -10.36,232.54 c -672.19,-30.39 -1364.85,-65.46 -2037.3,-81.08 -73.88,-691.63 -382.44,-1316.79 -840.89,-1800.53 -589.44,-622 -1426.69,-1010.3 -2331.21,-1005.85 -909.39,4.41 -1730.09,388.81 -2311.62,1001.93 -227.29,239.59 -417.98,514.11 -563.27,814.53 -269.46,4.31 -534.52,28.86 -781.29,81.53 109.73,-368.25 267.79,-683.19 472.06,-993.2 77.36,-117.42 70.13,-113.97 -4.5,-221.87 l -452.66,-654.15 c -34.91,-50.51 -19.64,-74.9 17.25,-112.71 249.9,-256.15 507.96,-486.22 840.32,-790.02 44.15,-40.33 73.08,-40.92 118.06,-6.67 l 606.32,460.92 c 95.68,72.7 99.58,56.75 228.33,-10.2 353.9,-219.57 740.58,-409.87 1153.43,-489.13 139.67,-26.86 127.13,-29.09 152.23,-159.78 L 6876.74,4786 c 8.38,-43.41 21.39,-53.88 67.64,-54.46 377.11,-5.86 759.28,-5.62 1146.09,0.53 50.55,0.66 67.38,7.3 78.2,56.65 l 176.28,803.16 c 28.07,128.02 24.79,127.8 152.57,170.4 355.96,118.88 799.69,331.14 1108.66,538.51 100.08,67.15 148.6,62.51 233.25,2.2 l 705.62,-470.74 c 52.1,-37.12 80.74,-58.34 136.08,-7.41 278.72,256.43 514.46,492.57 791.67,780.35 43.31,44.98 45.19,68.34 12.15,117.01 l -467.87,690.52 c -54.16,79.95 -60.25,94.55 -5.8,187.03 z"
   id="path9"
   inkscape:connector-curvature="0"
   style="fill:#0068b1" />
     <path
   class="fil0"
   d="m 2461.4,10015.27 c 3.79,-140.08 7.94,-331.93 14.36,-442.95 15.01,-259.63 86.2,-299.95 620.07,-298.76 l 251.06,-421.52 c 1270.55,-378.86 3170.88,100.36 3665.01,258.71 44.64,14.32 6.37,10.03 23.19,61.38 C 6146.01,8965.49 5248.28,8824.7 4338.34,8924.69 l -106.08,299.18 c 1388.75,-21.38 2789.16,58.57 4160,336.8 107.26,49.05 144.43,189.68 170.68,278.33 -1787.24,-346.33 -442.15,-160.29 -4241.65,63.68 -523.32,30.82 -1336.49,73.72 -1859.89,112.59 z"
   id="path11"
   inkscape:connector-curvature="0"
   style="fill:#0068b1" />
    </g>
    <g
   id="g27">
     <path
   class="fil0"
   d="M 19004.04,9016.34 V 7975.98 c 0,-123.75 -49.85,-185.73 -149.13,-185.73 h -103.09 v 1412.1 h 103.09 c 99.28,0 149.13,-61.98 149.13,-186.01 z m 801.51,-68.92 c 0,187.61 -28.56,330.91 -85.97,429.98 -91.65,155.64 -261.44,233.57 -509.64,233.57 H 17950.17 V 5895 h 1775.1 v 408.98 h -973.45 v 1077.44 h 458.12 c 248.2,0 417.99,77.79 509.64,233.57 57.41,95.53 85.97,238.84 85.97,430.12 z"
   id="path15"
   inkscape:connector-curvature="0"
   style="fill:#0068b1" />
     <path
   class="fil0"
   d="m 22056.11,9610.97 h -725.88 l -68.77,-987.38 h -349.49 l -69.05,987.38 h -725.6 L 20503.83,5895 h 1165.56 z M 20996.14,7366.58 h 181.02 l 57.82,848.24 h -296.52 z m 17.88,-261.23 h 145.25 l -51.44,-753.81 h -42.43 z"
   id="path17"
   inkscape:connector-curvature="0"
   style="fill:#0068b1" />
     <path
   class="fil0"
   d="m 15226.99,8947.42 c 0,187.61 -28.56,330.91 -85.28,429.98 -90.61,155.64 -258.59,233.57 -504.16,233.57 h -657.17 c -245.42,0 -413.61,-77.93 -504.16,-233.57 -56.43,-95.67 -84.93,-238.98 -84.93,-429.98 V 6558.55 c 0,-187.46 28.5,-330.91 84.93,-429.84 90.55,-155.57 258.74,-233.5 504.16,-233.5 h 657.17 c 245.57,0 413.55,77.93 504.16,233.5 56.72,95.68 85.28,238.84 85.28,429.84 v 525.59 h -793.26 v -658.28 c 0,-81.12 -41.74,-121.88 -124.66,-121.88 -34.18,0 -63.29,8.66 -87.7,26.41 -24.75,17.75 -37.02,49.71 -37.02,95.47 v 2654.26 c 0,81.39 41.74,122.23 124.72,122.23 45.27,0 77.24,-14.36 96.23,-42.64 18.93,-28.15 28.43,-54.7 28.43,-79.59 V 8310.5 h 793.26 z"
   id="path19"
   inkscape:connector-curvature="0"
   style="fill:#0068b1" />
     <polygon
   class="fil0"
   points="16410.99,7725.22 16795,6616.86 16795,5895.21 17574.61,5895.21 17574.61,9610.97 16795,9610.97 16795,7780.89 16410.99,8889.12 16410.99,9610.97 15631.46,9610.97 15631.46,5895.21 16410.99,5895.21 "
   id="polygon21"
   style="fill:#0068b1" />
     <polygon
   class="fil0"
   points="25633.28,7725.22 26017.16,6616.86 26017.16,5895.21 26796.69,5895.21 26796.69,9610.97 26017.16,9610.97 26017.16,7780.89 25633.28,8889.12 25633.28,9610.97 24853.74,9610.97 24853.74,5895.21 25633.28,5895.21 "
   id="polygon23"
   style="fill:#0068b1" />
     <path
   class="fil0"
   d="m 22392.98,9610.97 v -466.51 h 36.47 c 66.07,0 117.37,-27.87 153.91,-83.48 36.46,-55.6 54.77,-149.54 54.77,-281.61 V 5895 h 1689.82 v 3249.46 h 146.01 v 466.51 c -693.64,0 -1387.34,0 -2080.98,0 z m 1204.8,-466.51 V 6296.63 h -229.41 l 4.58,2850.32 z"
   id="path25"
   inkscape:connector-curvature="0"
   style="fill:#0068b1" />
    </g>
   </g>
  </g>
 </g>
</svg>